<svg width="174" height="63" viewBox="0 0 174 63" fill="none" xmlns="http://www.w3.org/2000/svg">
<g clip-path="url(#clip0_66_4)">
<path d="M5.59758 54.9496L5.26158 56.2096H8.18058L7.86558 54.9496C7.68358 54.2636 7.49458 53.5356 7.29858 52.7656C7.11658 51.9956 6.93458 51.2536 6.75258 50.5396H6.66858C6.50058 51.2676 6.32558 52.0166 6.14358 52.7866C5.97558 53.5426 5.79358 54.2636 5.59758 54.9496ZM0.641578 61.8796L4.92558 48.1876H8.64258L12.9266 61.8796H9.65058L8.81058 58.6246H4.63158L3.79158 61.8796H0.641578ZM23.6627 61.8796V48.1876H26.8337L30.4037 54.9916L31.7477 58.0156H31.8317C31.7757 57.2876 31.6987 56.4756 31.6007 55.5796C31.5027 54.6836 31.4537 53.8296 31.4537 53.0176V48.1876H34.3937V61.8796H31.2227L27.6527 55.0546L26.3087 52.0726H26.2247C26.2947 52.8286 26.3717 53.6406 26.4557 54.5086C26.5537 55.3766 26.6027 56.2166 26.6027 57.0286V61.8796H23.6627ZM50.0815 54.9496L49.7455 56.2096H52.6645L52.3495 54.9496C52.1675 54.2636 51.9785 53.5356 51.7825 52.7656C51.6005 51.9956 51.4185 51.2536 51.2365 50.5396H51.1525C50.9845 51.2676 50.8095 52.0166 50.6275 52.7866C50.4595 53.5426 50.2775 54.2636 50.0815 54.9496ZM45.1255 61.8796L49.4095 48.1876H53.1265L57.4105 61.8796H54.1345L53.2945 58.6246H49.1155L48.2755 61.8796H45.1255ZM68.1466 61.8796V48.1876H71.2336V59.2756H76.6516V61.8796H68.1466ZM88.803 61.8796V57.0076L84.666 48.1876H87.984L89.202 51.3376C89.398 51.8556 89.587 52.3596 89.769 52.8496C89.951 53.3256 90.133 53.8296 90.315 54.3616H90.399C90.595 53.8296 90.791 53.3256 90.987 52.8496C91.183 52.3596 91.372 51.8556 91.554 51.3376L92.793 48.1876H96.027L91.89 57.0076V61.8796H88.803ZM109.022 61.8796V50.7916H105.263V48.1876H115.889V50.7916H112.13V61.8796H109.022ZM127.264 61.8796V48.1876H130.351V61.8796H127.264ZM148.532 62.1316C147.384 62.1316 146.327 61.8656 145.361 61.3336C144.395 60.8016 143.618 60.0176 143.03 58.9816C142.456 57.9316 142.169 56.6436 142.169 55.1176C142.169 53.6056 142.463 52.3176 143.051 51.2536C143.653 50.1756 144.444 49.3566 145.424 48.7966C146.418 48.2226 147.489 47.9356 148.637 47.9356C149.519 47.9356 150.31 48.1176 151.01 48.4816C151.71 48.8316 152.291 49.2446 152.753 49.7206L151.115 51.6946C150.765 51.3726 150.394 51.1136 150.002 50.9176C149.624 50.7076 149.19 50.6026 148.7 50.6026C148.084 50.6026 147.517 50.7776 146.999 51.1276C146.495 51.4776 146.089 51.9816 145.781 52.6396C145.487 53.2976 145.34 54.0886 145.34 55.0126C145.34 56.4126 145.641 57.5046 146.243 58.2886C146.845 59.0726 147.65 59.4646 148.658 59.4646C149.218 59.4646 149.715 59.3386 150.149 59.0866C150.597 58.8346 150.989 58.5336 151.325 58.1836L152.963 60.1156C151.815 61.4596 150.338 62.1316 148.532 62.1316ZM167.867 62.1316C166.971 62.1316 166.075 61.9636 165.179 61.6276C164.297 61.2916 163.506 60.8016 162.806 60.1576L164.57 58.0366C165.06 58.4566 165.606 58.7996 166.208 59.0656C166.81 59.3316 167.391 59.4646 167.951 59.4646C168.595 59.4646 169.071 59.3456 169.379 59.1076C169.701 58.8696 169.862 58.5476 169.862 58.1416C169.862 57.7076 169.68 57.3926 169.316 57.1966C168.966 56.9866 168.49 56.7556 167.888 56.5036L166.103 55.7476C165.641 55.5516 165.2 55.2926 164.78 54.9706C164.36 54.6346 164.017 54.2216 163.751 53.7316C163.485 53.2416 163.352 52.6676 163.352 52.0096C163.352 51.2536 163.555 50.5676 163.961 49.9516C164.381 49.3356 164.955 48.8456 165.683 48.4816C166.425 48.1176 167.272 47.9356 168.224 47.9356C169.008 47.9356 169.792 48.0896 170.576 48.3976C171.36 48.7056 172.046 49.1536 172.634 49.7416L171.059 51.6946C170.611 51.3446 170.163 51.0786 169.715 50.8966C169.267 50.7006 168.77 50.6026 168.224 50.6026C167.692 50.6026 167.265 50.7146 166.943 50.9386C166.635 51.1486 166.481 51.4496 166.481 51.8416C166.481 52.2616 166.677 52.5766 167.069 52.7866C167.475 52.9966 167.972 53.2206 168.56 53.4586L170.324 54.1726C171.15 54.5086 171.808 54.9706 172.298 55.5586C172.788 56.1466 173.033 56.9236 173.033 57.8896C173.033 58.6456 172.83 59.3456 172.424 59.9896C172.018 60.6336 171.43 61.1516 170.66 61.5436C169.89 61.9356 168.959 62.1316 167.867 62.1316Z" fill="#5850EB"/>
<path d="M37.7045 0.507019H53.2383C54.1319 0.507019 54.5769 1.58978 53.9414 2.2181L38.1961 17.787C37.8032 18.1755 37.7999 18.809 38.1887 19.2017L53.9849 35.1532C54.6101 35.7845 54.1628 36.8568 53.2743 36.8568H38.2824C38.0191 36.8568 37.7665 36.753 37.5793 36.5679L23.459 22.6058C23.2718 22.4207 23.0191 22.3169 22.7559 22.3169H17.8459C16.9544 22.3169 16.5085 21.2385 17.1397 20.6089L36.9983 0.799044C37.1858 0.612039 37.4397 0.507019 37.7045 0.507019Z" fill="url(#paint0_linear_66_4)"/>
<path d="M19.2971 13.4171V2.90213C19.2971 2.01394 20.3687 1.56655 21.0003 2.19105L26.3173 7.44853C26.7132 7.83994 26.7132 8.47927 26.3173 8.87069L21.0003 14.1282C20.3687 14.7527 19.2971 14.3053 19.2971 13.4171Z" fill="url(#paint1_linear_66_4)"/>
<path d="M163.675 36.8569V0.56666H173.474V36.8569H163.675Z" fill="white"/>
<path d="M148.191 36.8569L123.707 11.9239V36.8569H113.908V0.56666H124.552L149.063 25.6053V0.56666H158.809V36.8569H148.191Z" fill="white"/>
<path d="M94.4893 29.9897H74.2576L70.8505 36.8569H59.9159L78.9062 0.56666H89.8408L108.831 36.8569H97.8964L94.4893 29.9897ZM77.7704 22.9113H91.0293L84.4263 9.54677L77.7704 22.9113Z" fill="white"/>
<path d="M0.767471 36.857V0.566767H10.5664V36.857H0.767471Z" fill="white"/>
</g>
<defs>
<linearGradient id="paint0_linear_66_4" x1="35.5497" y1="2.45861" x2="37.4233" y2="33.5746" gradientUnits="userSpaceOnUse">
<stop stop-color="#909CF7"/>
<stop offset="1" stop-color="#4F3EDA"/>
</linearGradient>
<linearGradient id="paint1_linear_66_4" x1="35.5497" y1="2.45861" x2="37.4233" y2="33.5746" gradientUnits="userSpaceOnUse">
<stop stop-color="#909CF7"/>
<stop offset="1" stop-color="#4F3EDA"/>
</linearGradient>
<clipPath id="clip0_66_4">
<rect width="174.002" height="63" fill="white"/>
</clipPath>
</defs>
</svg>
