<svg width="174" height="63" viewBox="0 0 174 63" fill="none" xmlns="http://www.w3.org/2000/svg">
<path d="M108.545 51.5C107.963 51.5 107.382 51.391 106.8 51.1729C106.228 50.9548 105.714 50.6367 105.26 50.2187L106.405 48.842C106.723 49.1146 107.077 49.3372 107.468 49.5099C107.859 49.6825 108.236 49.7689 108.599 49.7689C109.017 49.7689 109.326 49.6916 109.526 49.5371C109.735 49.3827 109.84 49.1737 109.84 48.9101C109.84 48.6284 109.722 48.424 109.485 48.2967C109.258 48.1604 108.949 48.0105 108.559 47.8469L107.4 47.3562C107.1 47.229 106.814 47.0609 106.541 46.8519C106.269 46.6338 106.046 46.3657 105.873 46.0476C105.701 45.7296 105.614 45.357 105.614 44.9299C105.614 44.4392 105.746 43.9939 106.01 43.5941C106.282 43.1942 106.655 42.8762 107.127 42.6399C107.609 42.4036 108.159 42.2855 108.777 42.2855C109.286 42.2855 109.794 42.3855 110.303 42.5854C110.812 42.7853 111.257 43.0761 111.639 43.4578L110.617 44.7254C110.326 44.4982 110.035 44.3256 109.744 44.2075C109.454 44.0802 109.131 44.0166 108.777 44.0166C108.431 44.0166 108.154 44.0893 107.945 44.2347C107.745 44.371 107.645 44.5664 107.645 44.8208C107.645 45.0935 107.772 45.2979 108.027 45.4342C108.29 45.5705 108.613 45.7159 108.995 45.8704L110.14 46.3339C110.676 46.552 111.103 46.8519 111.421 47.2335C111.739 47.6152 111.898 48.1195 111.898 48.7466C111.898 49.2373 111.766 49.6916 111.503 50.1096C111.239 50.5277 110.858 50.8639 110.358 51.1183C109.858 51.3728 109.254 51.5 108.545 51.5Z" fill="#5850EB"/>
<path d="M95.9948 51.5C95.2496 51.5 94.5635 51.3273 93.9365 50.982C93.3095 50.6367 92.8051 50.1278 92.4235 49.4554C92.0509 48.7738 91.8646 47.9378 91.8646 46.9473C91.8646 45.9658 92.0554 45.1298 92.4371 44.4392C92.8278 43.7395 93.3413 43.2079 93.9774 42.8444C94.6226 42.4718 95.3178 42.2855 96.0629 42.2855C96.6354 42.2855 97.1489 42.4036 97.6032 42.6399C98.0576 42.8671 98.4347 43.1352 98.7346 43.4441L97.6714 44.7254C97.4442 44.5164 97.2034 44.3483 96.9489 44.2211C96.7036 44.0848 96.4219 44.0166 96.1038 44.0166C95.704 44.0166 95.3359 44.1302 94.9997 44.3574C94.6726 44.5846 94.409 44.9117 94.2091 45.3388C94.0183 45.7659 93.9229 46.2794 93.9229 46.8791C93.9229 47.7878 94.1182 48.4967 94.509 49.0055C94.8997 49.5144 95.4223 49.7689 96.0766 49.7689C96.44 49.7689 96.7626 49.6871 97.0443 49.5235C97.3351 49.3599 97.5896 49.1646 97.8077 48.9374L98.8709 50.1914C98.1257 51.0638 97.167 51.5 95.9948 51.5Z" fill="#5850EB"/>
<path d="M82.1896 51.3364V42.4491H84.1934V51.3364H82.1896Z" fill="#5850EB"/>
<path d="M70.3489 51.3364V44.1393H67.909V42.4491H74.8062V44.1393H72.3663V51.3364H70.3489Z" fill="#5850EB"/>
<path d="M57.2249 51.3364V48.1741L54.5396 42.4491H56.6933L57.4839 44.4937C57.6111 44.8299 57.7338 45.1571 57.8519 45.4751C57.9701 45.7841 58.0882 46.1112 58.2063 46.4566H58.2609C58.3881 46.1112 58.5153 45.7841 58.6425 45.4751C58.7697 45.1571 58.8924 44.8299 59.0106 44.4937L59.8148 42.4491H61.9139L59.2287 48.1741V51.3364H57.2249Z" fill="#5850EB"/>
<path d="M43.817 51.3364V42.4491H45.8207V49.6462H49.3375V51.3364H43.817Z" fill="#5850EB"/>
<path d="M32.0911 46.8382L31.873 47.6561H33.7677L33.5632 46.8382C33.4451 46.3929 33.3224 45.9204 33.1952 45.4206C33.077 44.9208 32.9589 44.4392 32.8408 43.9757H32.7862C32.6772 44.4483 32.5636 44.9344 32.4455 45.4342C32.3364 45.925 32.2183 46.3929 32.0911 46.8382ZM28.8742 51.3364L31.6549 42.4491H34.0675L36.8483 51.3364H34.7218L34.1766 49.2236H31.464L30.9188 51.3364H28.8742Z" fill="#5850EB"/>
<path d="M14.9428 51.3364V42.4491H17.0011L19.3183 46.8655L20.1907 48.8283H20.2452C20.2089 48.3558 20.1589 47.8287 20.0953 47.2472C20.0317 46.6656 19.9999 46.1112 19.9999 45.5842V42.4491H21.9082V51.3364H19.8499L17.5327 46.9064L16.6603 44.9708H16.6058C16.6512 45.4615 16.7012 45.9886 16.7557 46.552C16.8193 47.1154 16.8511 47.6606 16.8511 48.1877V51.3364H14.9428Z" fill="#5850EB"/>
<path d="M3.21691 46.8382L2.99882 47.6561H4.89352L4.68906 46.8382C4.57092 46.3929 4.44824 45.9204 4.32102 45.4206C4.20289 44.9208 4.08475 44.4392 3.96662 43.9757H3.91209C3.80305 44.4483 3.68945 44.9344 3.57132 45.4342C3.46227 45.925 3.34414 46.3929 3.21691 46.8382ZM1.52588e-05 51.3364L2.78073 42.4491H5.1934L7.97411 51.3364H5.84768L5.30245 49.2236H2.58989L2.04465 51.3364H1.52588e-05Z" fill="#5850EB"/>
<path d="M24.2024 11.5H33.2862C34.1798 11.5 34.6247 12.5828 33.9893 13.2111L24.6261 22.4694C24.2332 22.8579 24.2298 23.4914 24.6186 23.8841L34.0327 33.3907C34.6579 34.0221 34.2107 35.0944 33.3222 35.0944H24.5766C24.3133 35.0944 24.0607 34.9905 23.8735 34.8054L14.9132 25.9455C14.726 25.7604 14.4733 25.6566 14.21 25.6566H12.0159C11.1244 25.6566 10.6785 24.5782 11.3096 23.9486L23.4962 11.792C23.6836 11.605 23.9376 11.5 24.2024 11.5Z" fill="url(#paint0_linear_87_32)"/>
<path d="M12.1092 19.0394V13.8951C12.1092 13.0069 13.1807 12.5595 13.8123 13.184L16.4136 15.7562C16.8094 16.1476 16.8094 16.7869 16.4136 17.1783L13.8123 19.7504C13.1807 20.3749 12.1092 19.9276 12.1092 19.0394Z" fill="url(#paint1_linear_87_32)"/>
<path d="M105.824 35.0944V11.5387H112.184V35.0944H105.824Z" fill="#1F2961"/>
<path d="M95.7733 35.0944L79.8809 18.9106V35.0944H73.5205V11.5387H80.4295L96.339 27.7911V11.5387H102.665V35.0944H95.7733Z" fill="#1F2961"/>
<path d="M60.9158 30.637H47.7836L45.572 35.0944H38.4745L50.8009 11.5387H57.8985L70.2249 35.0944H63.1274L60.9158 30.637ZM50.0637 26.0424H58.67L54.384 17.3676L50.0637 26.0424Z" fill="#1F2961"/>
<path d="M0.0817413 35.0945V11.5388H6.44212V35.0945H0.0817413Z" fill="#1F2961"/>
<defs>
<linearGradient id="paint0_linear_87_32" x1="22.6586" y1="12.7668" x2="23.8748" y2="32.9639" gradientUnits="userSpaceOnUse">
<stop stop-color="#909CF7"/>
<stop offset="1" stop-color="#4F3EDA"/>
</linearGradient>
<linearGradient id="paint1_linear_87_32" x1="22.6586" y1="12.7668" x2="23.8748" y2="32.9639" gradientUnits="userSpaceOnUse">
<stop stop-color="#909CF7"/>
<stop offset="1" stop-color="#4F3EDA"/>
</linearGradient>
</defs>
</svg>
